# xmcd CD database file
#
# Track frame offsets:
#	150
#	12705
#	32137
#	44460
#
# Disc length: 850 seconds
#
# Revision: 0
# Processed by: cddbd v1.5.1PL0 Copyright (c) Steve Scherf et al.
# Submitted via: CDex 1.51
#
DISCID=30035004
DTITLE=テツａｎｄトモ - サイボウの不思議
DYEAR=2004
DGENRE=Blues
TTITLE0=サイボウの不思議
TTITLE1=最初から今まで
TTITLE2=サイボウの不思議（オリジナルカラオケ）
TTITLE3=最初から今まで（オリジナルカラオケ）
EXTD=YEAR: 2004
EXTT0=
EXTT1=
EXTT2=
EXTT3=
PLAYORDER=
